<?xml version="1.0" standalone="no"?>
<!DOCTYPE svg PUBLIC "-//W3C//DTD SVG 20010904//EN"
 "http://www.w3.org/TR/2001/REC-SVG-20010904/DTD/svg10.dtd">
<svg version="1.0" xmlns="http://www.w3.org/2000/svg"
 width="3000.000000pt" height="3000.000000pt" viewBox="0 0 3000.000000 3000.000000"
 preserveAspectRatio="xMidYMid meet">

<g transform="translate(0.000000,3000.000000) scale(0.100000,-0.100000)"
fill="#000000" stroke="none">
<path d="M1330 29989 c-331 -37 -635 -183 -879 -422 -252 -247 -402 -557 -440
-909 -8 -66 -11 -1073 -11 -3148 l0 -3050 1500 0 1500 0 3 1963 c2 1770 4
1967 18 2012 92 286 257 451 544 544 46 15 786 16 9085 18 l9035 3 -10843
-10842 -10842 -10843 2 -2123 3 -2122 14465 14465 14465 14465 -13765 -1
c-7571 -1 -13799 -5 -13840 -10z"/>
<path d="M15534 14462 l-14462 -14462 13785 0 c9818 0 13805 3 13856 11 325
49 600 185 835 413 241 234 391 527 441 863 8 50 11 1001 11 3162 l0 3091
-1497 -2 -1498 -3 -5 -1970 -5 -1970 -26 -77 c-43 -126 -93 -204 -193 -303
-104 -104 -205 -161 -340 -195 -79 -20 -133 -20 -9095 -20 l-9016 0 10838
10838 10837 10837 -2 2125 -3 2125 -14461 -14463z"/>
</g>
</svg>
